<?xml version="1.0" standalone="no"?>
<!DOCTYPE svg PUBLIC "-//W3C//DTD SVG 20010904//EN"
 "http://www.w3.org/TR/2001/REC-SVG-20010904/DTD/svg10.dtd">
<svg version="1.0" xmlns="http://www.w3.org/2000/svg"
 width="436.000000pt" height="436.000000pt" viewBox="0 0 436.000000 436.000000"
 preserveAspectRatio="xMidYMid meet">
<metadata>
Created by potrace 1.14, written by Peter Selinger 2001-2017
</metadata>
<g transform="translate(0.000000,436.000000) scale(0.100000,-0.100000)"
fill="#000000" stroke="none">
<path d="M1880 4170 c-571 -86 -1075 -402 -1391 -871 -152 -226 -267 -507
-313 -762 -26 -140 -26 -148 -33 -308 -17 -430 101 -844 343 -1205 37 -54 70
-101 73 -104 3 -3 38 -43 78 -90 253 -301 644 -542 1038 -639 188 -46 276 -56
500 -56 197 0 257 6 415 39 668 141 1217 605 1469 1241 94 238 139 483 139
750 0 313 -65 595 -202 880 -296 614 -883 1038 -1564 1129 -141 19 -413 17
-552 -4z"/>
</g>
</svg>
