<?xml version="1.0" standalone="no"?>
<!DOCTYPE svg PUBLIC "-//W3C//DTD SVG 20010904//EN"
 "http://www.w3.org/TR/2001/REC-SVG-20010904/DTD/svg10.dtd">
<svg version="1.0" xmlns="http://www.w3.org/2000/svg"
 width="261.000000pt" height="261.000000pt" viewBox="0 0 261.000000 261.000000"
 preserveAspectRatio="xMidYMid meet">
<metadata>
Created by potrace 1.14, written by Peter Selinger 2001-2017
</metadata>
<g transform="translate(0.000000,261.000000) scale(0.100000,-0.100000)"
fill="#000000" stroke="none">
<path d="M643 2424 c-16 -12 -12 -13 36 -14 58 0 62 5 13 19 -22 7 -36 5 -49
-5z"/>
<path d="M1328 2383 c7 -3 16 -2 19 1 4 3 -2 6 -13 5 -11 0 -14 -3 -6 -6z"/>
<path d="M1100 2350 c0 -5 -9 -10 -20 -10 -13 0 -20 -7 -20 -19 0 -27 -10 -51
-22 -51 -5 0 -6 15 -2 35 4 24 2 35 -5 35 -21 0 -65 -28 -94 -59 -16 -17 -33
-31 -38 -31 -6 0 -7 -5 -3 -12 5 -7 3 -8 -5 -4 -7 5 -18 0 -26 -10 -7 -11 -17
-15 -21 -11 -5 4 -4 11 1 15 6 4 15 14 22 22 10 13 -1 15 -90 18 -56 1 -145 9
-197 16 -52 8 -99 11 -103 7 -5 -5 -9 -53 -10 -107 -2 -96 -1 -99 21 -102 20
-3 24 -8 21 -28 0 -4 5 -11 13 -15 9 -6 4 -12 -19 -21 -18 -7 -37 -23 -42 -38
-8 -20 -31 -259 -31 -323 0 -15 4 -14 45 3 25 11 75 22 110 26 l65 7 0 -47 c0
-48 -1 -49 -52 -60 -23 -5 -28 -12 -28 -35 0 -16 7 -46 16 -67 24 -57 26 -82
9 -107 -8 -13 -12 -27 -8 -30 3 -4 -27 -6 -68 -5 l-74 1 65 7 65 7 -88 1 c-56
1 -86 6 -82 12 3 6 1 10 -5 10 -6 0 -8 5 -5 10 4 6 -8 15 -25 22 -23 8 -28 13
-18 19 10 7 10 9 -3 9 -27 0 -30 48 -19 300 5 129 10 282 9 340 l0 105 -25
-30 c-46 -55 -145 -208 -180 -277 -19 -38 -48 -109 -64 -158 -27 -78 -31 -111
-40 -272 -5 -101 -12 -208 -16 -238 -6 -60 7 -160 33 -254 l16 -58 56 6 c31 3
167 9 304 12 183 5 247 4 247 -4 0 -7 -16 -12 -38 -12 -22 0 -61 -7 -88 -15
-27 -8 -78 -18 -114 -22 -52 -5 -60 -8 -40 -14 15 -5 1 -6 -35 -3 -42 3 -54 1
-40 -5 14 -7 1 -9 -45 -6 -50 3 -58 2 -35 -5 30 -9 29 -9 -5 -4 -19 2 -59 7
-88 10 -52 5 -54 5 -47 -18 16 -54 112 -222 171 -301 410 -546 1187 -680 1754
-302 296 197 492 490 566 845 25 118 25 364 1 480 -36 171 -118 375 -175 436
-31 32 -66 84 -57 84 10 0 -51 82 -103 140 -27 30 -53 52 -56 49 -4 -4 -13
-77 -20 -163 -14 -157 -26 -199 -62 -213 -8 -3 -14 -10 -14 -16 0 -11 -45 -82
-67 -105 -7 -7 -16 -24 -19 -38 -6 -23 -51 -44 -96 -44 -29 0 -68 -23 -68 -39
0 -9 21 -34 46 -56 70 -58 150 -239 118 -266 -15 -12 -38 -3 -29 12 4 5 -2 9
-12 10 -16 0 -16 1 2 9 17 7 16 9 -10 10 -26 1 -27 3 -10 10 15 6 9 9 -25 8
-37 0 -41 -1 -20 -8 23 -7 22 -8 -10 -9 -26 -1 -31 -4 -20 -11 13 -8 13 -10
-2 -10 -9 0 -18 -4 -20 -9 -6 -15 -86 -20 -99 -5 -14 17 -5 44 16 44 18 0 19
5 5 30 -7 13 -7 21 0 25 5 3 10 9 10 13 0 10 -51 31 -111 47 -33 9 -61 25 -78
44 -15 17 -36 31 -45 31 -10 0 -26 5 -37 11 -37 19 -150 18 -191 -2 -21 -11
-48 -19 -62 -19 -14 0 -28 -4 -31 -10 -11 -17 -44 -11 -55 10 -6 12 -21 20
-35 20 -14 0 -25 6 -25 13 0 13 -44 37 -69 37 -9 0 -35 9 -58 20 -27 12 -45
15 -49 9 -3 -6 -16 -9 -27 -8 -12 1 -29 0 -37 -3 -54 -20 -99 -29 -119 -26
l-23 3 31 45 c16 24 27 48 24 54 -3 5 -1 6 5 2 6 -4 30 7 53 24 23 16 38 30
33 30 -6 0 -16 -6 -22 -12 -17 -17 -32 7 -28 43 2 20 -1 26 -10 22 -8 -3 -14
0 -14 6 0 8 -6 9 -17 2 -16 -8 -18 -4 -17 32 1 87 79 177 189 218 69 26 155
30 155 8 0 -5 16 -7 36 -4 28 3 40 -1 58 -20 16 -17 26 -21 33 -14 8 8 13 7
17 0 13 -21 37 -11 51 22 13 32 41 53 80 59 26 4 48 47 33 65 -7 9 -7 17 1 27
14 17 10 136 -4 136 -6 0 -16 -5 -23 -12 -8 -8 -12 -9 -12 -1 0 6 -9 9 -20 6
-11 -3 -20 -12 -20 -19 0 -8 -7 -14 -15 -14 -8 0 -15 4 -15 9 0 5 -9 11 -20
14 -11 3 -18 0 -17 -6 1 -6 -9 -13 -22 -15 -16 -3 -21 0 -16 9 6 9 1 11 -19 7
-14 -3 -26 -1 -26 4 0 5 -5 6 -12 2 -8 -5 -9 -2 -5 9 5 14 -1 17 -38 17 -25 0
-45 -4 -45 -10z m-364 -171 c36 -22 45 -55 19 -65 -8 -4 -15 -14 -15 -23 0 -9
-7 -29 -15 -45 -8 -15 -15 -34 -15 -42 0 -21 -22 -62 -36 -68 -8 -3 -26 13
-44 40 -38 57 -41 126 -8 185 18 32 27 39 51 39 16 0 45 -9 63 -21z m-111
-229 c3 -5 2 -10 -4 -10 -5 0 -13 5 -16 10 -3 6 -2 10 4 10 5 0 13 -4 16 -10z
m-7 -193 c3 -22 -1 -27 -18 -27 -23 0 -35 22 -26 46 10 25 41 12 44 -19z m301
-163 c47 -10 37 -23 -11 -17 -54 7 -85 22 -47 23 15 0 41 -3 58 -6z m-149 -38
c0 -22 -36 -61 -44 -48 -4 7 -2 12 3 12 6 0 11 8 11 18 0 10 3 22 7 25 11 12
23 8 23 -7z m-82 -68 c5 -29 9 -55 7 -56 -2 -2 -14 13 -28 35 -19 30 -22 42
-13 55 17 28 23 22 34 -34z m292 32 c-18 -9 -120 -21 -120 -14 0 2 10 8 22 13
29 10 117 12 98 1z m624 -54 c92 -18 136 -67 87 -98 -20 -12 -18 -35 7 -55 13
-10 12 -18 -4 -64 -37 -104 -97 -133 -225 -110 -134 23 -172 70 -176 211 -2
47 0 79 3 72 3 -6 10 -9 16 -6 6 4 5 -2 -1 -15 -10 -17 -9 -21 4 -21 9 0 19
-8 22 -17 11 -31 43 -44 43 -19 0 11 9 13 36 10 41 -5 74 16 74 48 0 10 4 18
10 18 14 0 28 -32 22 -50 -4 -13 -3 -13 11 -1 14 11 18 11 23 -3 9 -23 24 -20
24 4 0 11 -7 23 -15 26 -8 4 -15 15 -15 25 0 11 -15 26 -37 38 l-38 20 30 0
c17 0 61 -6 99 -13z m-936 -48 c16 -16 15 -28 -3 -28 -7 0 -19 -8 -24 -17 -8
-15 -10 -11 -11 20 0 38 15 48 38 25z m236 -18 c34 0 56 -10 56 -26 0 -7 9
-18 19 -24 23 -12 20 -43 -5 -71 -10 -11 -13 -19 -8 -20 5 -1 -7 -5 -26 -10
-19 -5 -42 -11 -50 -13 -8 -3 -35 -5 -60 -7 -44 -2 -43 -2 25 -15 l70 -13 -81
3 c-54 2 -93 9 -119 22 -44 21 -86 75 -84 108 1 16 3 14 10 -9 12 -40 28 -59
66 -78 49 -26 67 -22 39 8 -23 25 -29 54 -13 66 5 3 25 -2 45 -13 20 -10 41
-17 47 -15 11 4 15 57 4 57 -13 0 -19 32 -9 51 9 15 15 17 30 9 10 -5 30 -10
44 -10z m315 7 c6 -8 22 -58 37 -113 27 -103 61 -157 99 -161 11 -1 61 -7 110
-14 115 -14 160 -3 213 51 l37 39 -2 -42 c-2 -23 0 -35 3 -27 3 8 12 29 20 47
16 36 18 73 4 73 -14 0 -13 37 2 46 6 4 17 -1 24 -12 7 -10 20 -26 29 -36 10
-10 15 -27 12 -45 -4 -27 -4 -27 -6 5 -1 40 -31 46 -31 6 0 -14 -13 -52 -29
-83 -33 -66 -71 -161 -71 -179 0 -8 21 -12 69 -12 39 0 73 -4 76 -10 9 -14 62
-13 67 2 2 6 29 17 59 24 30 6 64 15 77 19 20 7 22 4 22 -24 0 -29 2 -31 39
-31 22 0 51 -4 64 -9 27 -11 46 -49 29 -60 -6 -3 -60 -5 -121 -4 -72 1 -109
-2 -105 -9 4 -6 -11 -7 -42 -1 -27 4 -66 8 -87 8 -25 0 -36 4 -33 12 3 8 -12
14 -42 18 -26 4 -61 10 -78 15 -31 8 -32 7 -50 -46 -10 -30 -22 -54 -27 -54
-4 0 -5 -5 -1 -12 5 -8 2 -9 -11 -5 -14 6 -16 3 -12 -13 3 -11 0 -26 -7 -33
-7 -7 -16 -24 -19 -38 -8 -31 -40 -70 -62 -73 -8 -1 -15 -6 -14 -11 0 -4 -5
-12 -13 -17 -10 -7 -10 -8 2 -6 9 2 17 0 18 -5 10 -34 -113 -198 -179 -238
-22 -13 -47 -30 -54 -37 -7 -6 -16 -12 -20 -12 -3 0 -22 -11 -43 -25 -22 -14
-55 -25 -79 -26 -35 -2 -48 2 -73 26 -16 16 -30 32 -30 35 0 3 27 4 60 2 34
-3 81 1 108 9 26 7 49 13 51 13 7 1 80 80 77 84 -2 1 -20 -4 -42 -11 -47 -16
-119 -17 -119 0 0 6 -3 15 -7 19 -5 4 -8 -2 -8 -14 0 -20 -2 -21 -20 -10 -11
7 -20 19 -20 26 0 7 -7 15 -15 18 -8 4 -12 10 -9 15 3 5 0 9 -5 9 -6 0 -11 8
-11 18 -1 16 -2 16 -13 0 -14 -17 -31 -12 -33 10 -1 6 -2 22 -3 35 -1 18 -3
19 -11 7 -6 -9 -10 -10 -10 -3 0 6 5 15 11 19 6 3 7 9 3 13 -18 13 -43 72 -37
88 4 11 3 14 -5 9 -7 -4 -12 -2 -12 3 0 6 4 11 10 11 12 0 32 -38 26 -49 -3
-4 8 -8 24 -9 16 0 33 4 36 10 4 7 9 6 14 -2 4 -7 31 -15 59 -18 34 -3 51 -9
51 -18 0 -8 -4 -14 -10 -14 -5 0 -10 -8 -10 -17 0 -15 2 -16 10 -3 5 8 10 11
11 5 0 -5 4 1 8 15 5 19 13 25 34 24 20 0 24 3 16 12 -7 9 -4 13 11 16 11 2
20 7 20 12 -1 5 12 15 29 22 68 29 22 59 -103 68 -74 6 -89 11 -57 21 12 4 18
12 14 21 -3 8 1 14 11 14 9 0 16 -4 16 -10 0 -15 43 -12 79 6 28 14 34 14 49
1 11 -9 24 -12 37 -7 12 4 29 1 44 -9 23 -15 24 -15 12 7 -14 26 -4 29 15 5
13 -17 13 -17 14 0 0 10 5 15 10 12 6 -4 10 -12 9 -18 -4 -34 2 -44 27 -44 23
0 25 2 19 26 -4 14 -8 37 -10 51 -3 39 -4 40 -23 40 -9 0 -28 14 -42 30 -26
32 -57 38 -79 18 -11 -11 -12 -10 -7 0 5 8 -2 22 -18 37 -14 13 -26 31 -26 41
0 9 -6 14 -13 11 -7 -3 -13 3 -13 13 0 10 6 16 13 13 9 -4 11 0 7 11 -5 12 -2
15 10 10 9 -3 16 -1 16 5 0 6 8 11 18 11 14 0 15 2 2 10 -20 13 -70 13 -70 0
0 -5 -6 -7 -13 -4 -8 3 -20 -2 -27 -11 -17 -21 -30 -19 -30 5 0 12 7 20 18 20
12 1 10 4 -9 15 -26 14 -66 96 -55 114 4 5 0 11 -6 14 -9 3 -2 26 24 78 21 41
40 86 43 102 6 29 34 37 54 14z m-513 -52 c-2 -13 1 -22 5 -19 16 9 9 -6 -11
-28 l-20 -22 4 35 c2 19 4 40 5 47 0 6 5 12 10 12 5 0 8 -11 7 -25z m-138 -32
c-10 -2 -28 -2 -40 0 -13 2 -5 4 17 4 22 1 32 -1 23 -4z m312 -146 c74 -3 85
-6 89 -23 1 -10 10 -26 18 -35 13 -15 10 -21 -23 -58 -21 -23 -42 -41 -47 -41
-19 0 -86 -105 -87 -137 0 -6 -4 -14 -10 -18 -15 -9 -39 49 -35 88 1 21 -1 37
-5 37 -4 0 -7 6 -6 13 0 6 -5 40 -13 75 -11 51 -12 67 -1 87 7 13 18 22 24 19
6 -2 49 -5 96 -7z m-235 -56 c3 -5 2 -12 -3 -15 -5 -3 -9 1 -9 9 0 17 3 19 12
6z m475 -108 c0 -7 -4 -13 -10 -13 -5 0 -13 -1 -16 -2 -4 -2 -8 9 -10 24 -2
25 -1 26 17 15 10 -6 19 -17 19 -24z m52 -118 c24 -2 49 1 57 8 12 10 14 9 8
-5 -4 -12 -2 -15 7 -12 8 3 17 1 20 -5 4 -6 12 -8 19 -5 7 2 21 -3 30 -13 15
-18 13 -18 -61 -15 -75 4 -142 29 -142 53 0 6 5 7 10 4 6 -4 29 -8 52 -10z
m-675 -41 c-3 -3 -12 -4 -19 -1 -8 3 -5 6 6 6 11 1 17 -2 13 -5z m1338 -12 c6
-4 21 -23 34 -42 l23 -35 -35 36 c-19 20 -41 39 -49 42 -10 4 -9 6 2 6 8 0 20
-3 25 -7z m78 -109 c-7 -2 -21 -2 -30 0 -10 3 -4 5 12 5 17 0 24 -2 18 -5z
m-979 -19 c9 -24 7 -28 -9 -14 -17 14 -20 30 -6 30 5 0 12 -7 15 -16z m-24
-24 c0 -5 -4 -10 -10 -10 -5 0 -10 5 -10 10 0 6 5 10 10 10 6 0 10 -4 10 -10z
m80 -34 c0 -3 -4 -8 -10 -11 -5 -3 -10 -1 -10 4 0 6 5 11 10 11 6 0 10 -2 10
-4z m1171 -83 c13 -16 12 -17 -3 -4 -10 7 -18 15 -18 17 0 8 8 3 21 -13z m49
-18 c20 -24 6 -28 -15 -5 -10 11 -13 20 -8 20 6 0 16 -7 23 -15z m-1339 -205
c5 0 9 -4 9 -10 0 -16 -37 -11 -44 6 -5 12 -2 15 10 10 8 -3 20 -6 25 -6z"/>
<path d="M1240 1100 c0 -5 12 -10 26 -10 14 0 23 4 19 10 -3 6 -15 10 -26 10
-10 0 -19 -4 -19 -10z"/>
<path d="M1250 640 c0 -5 5 -10 11 -10 5 0 7 5 4 10 -3 6 -8 10 -11 10 -2 0
-4 -4 -4 -10z"/>
<path d="M1020 599 c0 -5 -4 -7 -10 -4 -15 9 -12 -11 4 -24 17 -14 46 -4 46
17 0 12 -3 13 -12 4 -17 -17 -29 -15 -22 3 4 8 3 15 0 15 -3 0 -6 -5 -6 -11z"/>
<path d="M1419 561 c-19 -16 -20 -20 -8 -21 17 0 45 27 37 35 -3 3 -16 -3 -29
-14z"/>
<path d="M1522 2209 c-16 -25 -11 -33 17 -24 23 7 29 45 8 45 -7 0 -18 -9 -25
-21z"/>
<path d="M1437 2213 c-4 -3 -7 -11 -7 -17 0 -6 5 -5 12 2 6 6 9 14 7 17 -3 3
-9 2 -12 -2z"/>
<path d="M1456 2195 c-9 -26 -7 -32 5 -12 6 10 9 21 6 23 -2 3 -7 -2 -11 -11z"/>
<path d="M1473 2163 c-3 -10 -13 -26 -21 -35 -17 -20 -8 -22 38 -9 16 5 31 3
41 -5 13 -11 19 -11 36 1 12 9 21 25 20 36 -1 18 -6 20 -37 16 -19 -3 -43 -8
-53 -12 -13 -6 -16 -3 -11 9 3 9 3 16 0 16 -4 0 -9 -8 -13 -17z m84 -9 c-3 -3
-12 -4 -19 -1 -8 3 -5 6 6 6 11 1 17 -2 13 -5z"/>
<path d="M1635 2149 c0 -13 -4 -26 -10 -27 -5 -2 -16 -9 -24 -15 -7 -6 -25
-13 -40 -15 -34 -4 -59 -28 -45 -42 6 -6 33 -11 60 -13 53 -2 63 -17 35 -50
-6 -8 -8 -17 -4 -19 15 -6 81 -142 97 -198 8 -30 15 -71 15 -90 0 -45 8 -81
20 -93 11 -11 11 -13 16 116 2 49 6 94 9 102 2 7 -2 21 -9 32 -21 27 -18 39 5
18 25 -23 33 -15 21 19 -7 17 -18 26 -32 26 -15 0 -19 5 -15 15 3 9 0 15 -8
15 -9 0 -12 13 -9 47 3 33 0 50 -9 58 -8 5 -17 18 -21 28 -4 10 -11 15 -17 12
-5 -3 -10 -1 -10 4 0 6 5 11 10 11 17 0 11 28 -13 56 l-23 26 1 -23z m-11 -65
c9 -23 8 -24 -12 -24 -10 0 -22 -4 -27 -9 -6 -6 -15 -4 -23 5 -11 12 -9 14 8
14 11 0 23 7 26 15 8 19 20 19 28 -1z"/>
<path d="M1481 2091 c-8 -5 -9 -11 -3 -15 13 -8 42 3 42 15 0 11 -21 11 -39 0z"/>
<path d="M433 1373 c9 -2 25 -2 35 0 9 3 1 5 -18 5 -19 0 -27 -2 -17 -5z"/>
</g>
</svg>
